<svg width="220" height="64" viewBox="0 0 220 64" fill="none" xmlns="http://www.w3.org/2000/svg">
  <defs>
    <linearGradient id="igniteGrad" x1="8" y1="8" x2="56" y2="56" gradientUnits="userSpaceOnUse">
      <stop stop-color="#FF6B35"/>
      <stop offset="1" stop-color="#FFB59D"/>
    </linearGradient>
  </defs>
  <rect x="4" y="4" width="56" height="56" rx="16" fill="#111111" stroke="#594139"/>
  <path d="M20 45L30.5 19H37.5L27 45H20Z" fill="url(#igniteGrad)"/>
  <path d="M35 45L43.5 27H50L41.5 45H35Z" fill="#FFB59D"/>
  <circle cx="44.5" cy="20.5" r="3.5" fill="#FF6B35"/>
  <g fill="#FFB59D">
    <path d="M74 23H79.2V44H74V23Z"/>
    <path d="M100.8 23H84V44H100.8V30H92V35.2H95.6V38.8H89.2V28.2H100.8V23Z"/>
    <path d="M105.6 23H111.0L118.6 36.1V23H123.6V44H119.1L110.6 30.2V44H105.6V23Z"/>
    <path d="M128.4 23H133.6V44H128.4V23Z"/>
    <path d="M138.4 23H155.4V27.4H149.4V44H144.2V27.4H138.4V23Z"/>
    <path d="M160.2 23H176.6V27.3H165.4V31.4H175.3V35.5H165.4V39.7H177.0V44H160.2V23Z"/>
  </g>
</svg>
